<?xml version="1.0" encoding="UTF-8"?>
<svg id="Capa_1" data-name="Capa 1" xmlns="http://www.w3.org/2000/svg" viewBox="0 0 152 308">
  <defs>
    <style>
      .cls-1 {
        fill: #fff;
      }
    </style>
  </defs>
  <path class="cls-1" d="M21.05,50.71c-6.33-4.79-5.11-11.19,3-16.42-6.92-3.58-7.66-9.92-7.87-17.08,7.16-.09,13.51,.67,17.27,7.66,5.21-8.06,11.37-9.23,16.3-3.26-9.33,7.33-9.9,11.83-3.23,19.93,3.05-2.4,5.8-5.32,9.17-6.88,1.52-.7,4.29,1.29,6.47,2.05-2.3,2.41-5.2,4.08-5.36,5.98-.19,2.2,2.06,4.59,3.19,6.93,1.44,2.96,2.85,5.93,4.21,8.92,1.58,3.48,2.37,9.21,7.33,7.52,4.83-1.65,2.56-6.87,1.37-10.55-1.53-4.74-3.81-9.25-5.29-14-3.84-12.32,1.97-23.56,14.07-27.99,2.76-1.01,5.33-2.51,9.22-4.38-1.32,3.81-2.38,6.86-3.54,10.2,8.93-.42,17.27,2.8,25.27,7.43,2.21,1.28,5.03,1.84,7.63,2.05,3.61,.28,7.54-.2,7.68-4.96,.14-4.64-3.6-4.67-7.06-4.39,1.64-6.98,5.64-9.84,11.75-8.61,6.04,1.22,10.13,7.15,9.27,13.44-1.45,10.64-12.57,17.11-23.58,13.16-4.46-1.6-8.41-4.62-12.58-7.01-2.94-1.68-5.87-3.38-9.32-5.37,1.26,8.92,.28,10.84-4.93,12.46-1.69-2.36-2.78-5.63-4.75-6.28-3.86-1.27-7.54,1.17-8.97,4.66-1.29,3.16-1.27,7-1.19,10.53,.05,2.05,1.38,4.06,2.07,6.11,2.44,7.17,2.23,13.73-4.87,18.42,4.34,3.33,9.08,2.21,10.99-2.73,1.17-3.02,1.25-6.47,1.75-9.74,.9-5.91,4.72-10.03,9.78-10.48,4.31-.39,9.1,3.72,10.74,9.21-8.72-1.39-10.65-.15-13.91,8.45-2.83,7.47-8.22,11.49-16.67,11.45-.17,10-5.71,15.35-14.91,18-5.18,1.49-6.43,5.39-5.16,12.7-5.61-1.68-9.53-6.2-9.23-10.66,.34-5.13,4.7-8.96,10.96-9.83,3.27-.46,6.73-.64,9.7-1.9,4.55-1.92,5.46-6.6,2.31-10.79-5.98,8.73-13.66,6.66-21.71,3.63-7.67-2.89-13.1-1.97-16.23,2.96-1.33,2.1-1.81,5.33-1.31,7.77,.25,1.23,3.55,1.83,5.7,2.82-.87,5.37-3.05,6.57-12.61,5.5,3.25,5.17,6.06,9.79,9.02,14.32,3.59,5.5,5.58,11.33,4.25,17.96-1.51,7.5-8.15,13.17-15.48,13.25-5.81,.06-11.14-4.42-11.95-10.04-.84-5.8,1.9-9.35,8.84-11.24-.09,1.17-.64,2.57-.16,3.3,.99,1.52,2.69,3.89,3.79,3.74,1.87-.26,4.38-1.84,5.08-3.51,2.1-5.07-.11-9.92-2.66-14.2-4.31-7.23-6.57-14.85-6.01-23.08-3.23,1.27-6.37,2.5-10.19,4,1.94-4.51,3.42-7.8,4.78-11.13,4.11-10.11,15.45-15.67,26.37-12.48,5.1,1.48,9.9,3.94,14.96,5.59,3.69,1.2,7.93,3.09,10.81-1.33,1.56-2.4-2-5.36-7.72-7.43-3.52-1.28-7.01-2.99-10.07-5.15-5.46-3.85-7.89-3.38-11.08,4.47-1.34-3.42-3.48-6.19-2.81-7.74,1.44-3.32,4.33-6,6.78-9.14-6.42-6.91-13.65-6.25-19.5,3.25Z"/>
  <path class="cls-1" d="M9.63,241.77c2.55-.52,5.1-1.04,7.55-1.54-7.87-8.51-8.15-11.63-1.64-18.45,4.81,3.84,9.11,8.02,8.63,15.07,1.93-8.06,2.96-9.13,7.94-8.05,.13,.29,.45,.69,.35,.85-1.93,3.33-2.68,6.64,.82,9.38,3.55,2.79,7.17,1.99,10.61-.39,9.33-6.46,9.78-20.8,.84-26.94-7.44-5.11-15.08-2.72-19.56,6.32-1.4-3.15-3.52-6.21-3.96-9.5-.32-2.38,1.27-5.28,2.75-7.43,.33-.48,3.78,1.18,6.27,2.01,3.11-2.28,2.41-5.22,.03-8.12-4-4.87-9.57-4.67-15.69,.42-2.69-5.04-1.84-6.66,5.65-11.39-2.51-1.98-6.06-3.59-7.56-6.32-1.55-2.82-1.09-6.73-1.57-10.66,6.3,2.05,15.63-1.86,15.69,11.43,3.55-5.77,5.69-11.39,11.37-8.84-.8,4.4-2.26,8.38-2.02,12.25,.26,4.11,4.93,7,8.31,6.16,2.29-.56,3.65-1.68,1.94-4.26-2.34-3.52-1.42-5.94,2.72-6.64,4.95-.84,9.15,.59,12.22,4.87-8.31,4.71-10.29,10.63-6.17,17.95,3.91,6.94,13.96,9.47,21.55,5.19,2.11-1.19,3.99-3,5.6-4.86,2.92-3.37,3.57-7.29,.7-10.95-2.78-3.55-6.3-2.98-9.62-.49-2.27-5.16-1.23-6.34,7.24-8.71-6.88,.72-10.81-3.91-14.81-8.24,5.28-6.91,10.02-6.67,18.44,1.42,.49-2.53,.97-5.03,1.66-8.57,2.45,2.98,4.08,4.84,5.56,6.81,2.96,3.92,2.99,7.81,.21,11.99-.94,1.4-1.02,3.55-.93,5.33,.02,.45,2.67,1.46,3.35,1.02,1.36-.87,2.37-2.46,3.19-3.94,.54-.96,.82-2.3,.66-3.39-.98-6.63,1.99-11.57,7.61-16.77,.44,3.87,.8,7.06,1.22,10.76,2.56-2.64,4.74-5.54,7.54-7.63,5.17-3.88,11.22-3.37,16.07,.77,4.34,3.7,5.41,8.67,3.01,13.96-2.48,5.47-6.82,7.41-11.65,6.17-1.32-3.15-1.72-6.71-3.4-7.47-2.23-1.02-6.22-.85-8.1,.58-3.76,2.85-6.75,6.78-9.77,10.5-3.24,4-5.86,8.53-9.28,12.36-5,5.61-11.46,8.45-19.12,8.17-1.22-.04-2.45,0-4.18,.57,8.88,4.18,12.82,10.6,10.68,20.01-9.52,2.14-15.95-1.81-19.58-10.78-.73,.81-1.12,1.04-1.1,1.24,1.23,12.43-4.79,20.97-14.62,27.54-3.87,2.59-7.78,5.15-11.43,8.03-2.05,1.62-4.32,3.61-5.2,5.92-.94,2.48-1.19,5.92-.15,8.22,.67,1.48,4.21,1.67,7.14,2.67,1.31,4.91-.29,9-5.36,11.73-4.91,2.65-11.2,1.77-14.49-2.62-7.83-10.42-1.17-17.37,6.57-23.71-3.62-.4-6.85-.75-10.7-1.17,5.35-5.87,10.66-8.67,17.63-7.76,1.65,.22,3.9-.42,5.1-1.52,1.01-.92,1.48-3.26,1.06-4.62-.26-.84-2.78-1.67-4.02-1.39-3.27,.76-6.68,3.5-9.52,2.92-3.75-.77-7-3.95-10.46-6.1,.06-.46,.13-.93,.19-1.39Z"/>
</svg>